<?xml version="1.0" encoding="UTF-8"?>
<svg version="1.1" xmlns="http://www.w3.org/2000/svg" width="225" height="225">
<path d="M0 0 C3.0625 0.4375 3.0625 0.4375 4.69140625 2.5625 C6.23466591 5.79850886 6.68092168 8.30962753 7.0625 11.875 C7.13879639 12.54474854 7.21509277 13.21449707 7.29370117 13.90454102 C7.82351204 18.69048189 8.24831835 23.48526069 8.67578125 28.28125 C11.80311572 71.62316125 11.80311572 71.62316125 32.8125 108.3125 C43.75748984 117.02297395 58.38927184 119.55615753 71.61279297 123.12597656 C73.95337469 123.76053635 76.28922486 124.41051273 78.625 125.0625 C79.32061035 125.24425781 80.0162207 125.42601562 80.73291016 125.61328125 C84.8355916 126.76706451 87.42650773 128.04357611 90.0625 131.4375 C90.0625 132.0975 90.0625 132.7575 90.0625 133.4375 C61.98351095 140.06922103 32.79744149 141.85611396 4.0625 143.4375 C4.0625 144.4275 4.0625 145.4175 4.0625 146.4375 C32.90356887 143.67891786 61.50790603 140.3747243 90.0625 135.4375 C88.31344275 139.62485237 86.39039351 140.66734722 82.39453125 142.51318359 C78.37471437 144.10646528 74.24319292 145.16773374 70.0625 146.25 C53.00888205 150.92158682 37.74455074 156.17282357 28.44018555 172.10986328 C25.05748749 178.17320391 22.2021854 184.47464167 19.3034668 190.77880859 C16.56240449 196.63884477 13.57938499 201.74477521 9.0625 206.4375 C8.58425781 206.97761719 8.10601562 207.51773438 7.61328125 208.07421875 C4.80932686 210.87817314 2.40857345 211.79419005 -1.4375 212 C-5.95813479 211.6971099 -8.53065515 210.5415142 -11.9375 207.4375 C-17.57618206 200.00308506 -21.67416289 191.59777699 -25.90625 183.3203125 C-36.17061507 163.83289477 -51.36357612 157.6421998 -71.203125 150.515625 C-74.96498794 149.16092347 -78.71655351 147.78736003 -82.4453125 146.34375 C-83.61537842 145.89225586 -83.61537842 145.89225586 -84.80908203 145.43164062 C-88.04495165 143.92023192 -90.35441739 141.8846309 -92.9375 139.4375 C-91.6175 139.1075 -90.2975 138.7775 -88.9375 138.4375 C-90.2575 137.7775 -91.5775 137.1175 -92.9375 136.4375 C-91.42488548 132.5872085 -89.29420628 130.79775585 -85.9375 128.4375 C-82.6875 127.1640625 -82.6875 127.1640625 -78.9375 126.0625 C-77.91329956 125.75397095 -77.91329956 125.75397095 -76.8684082 125.43920898 C-72.79830211 124.22511097 -68.70670908 123.0998479 -64.60546875 121.99609375 C-50.6297778 118.25404697 -50.6297778 118.25404697 -37.9375 111.4375 C-37.29039063 111.00050781 -36.64328125 110.56351562 -35.9765625 110.11328125 C-19.01728973 97.19016728 -14.42786475 70.73834212 -11.62768555 50.93041992 C-10.33588885 41.1212824 -9.39405887 31.28633469 -8.7590332 21.41259766 C-7.26715945 1.0823429 -7.26715945 1.0823429 0 0 Z " fill="#000000" transform="translate(113.9375,6.5625)"/>
<path d="M0 0 C0 0.99 0 1.98 0 3 C-5.070415 7.38686076 -11.00569562 8.62476619 -17.375 10.3125 C-34.9673126 15.22903591 -50.96937457 20.13826525 -60.62231445 36.67236328 C-64.00501251 42.73570391 -66.8603146 49.03714167 -69.7590332 55.34130859 C-72.50009551 61.20134477 -75.48311501 66.30727521 -80 71 C-80.47824219 71.54011719 -80.95648438 72.08023438 -81.44921875 72.63671875 C-84.25317314 75.44067314 -86.65392655 76.35669005 -90.5 76.5625 C-95.02063479 76.2596099 -97.59315515 75.1040142 -101 72 C-106.63868206 64.56558506 -110.73666289 56.16027699 -114.96875 47.8828125 C-125.23311507 28.39539477 -140.42607612 22.2046998 -160.265625 15.078125 C-164.02748794 13.72342347 -167.77905351 12.34986003 -171.5078125 10.90625 C-172.28785645 10.60525391 -173.06790039 10.30425781 -173.87158203 9.99414062 C-177.10745165 8.48273192 -179.41691739 6.4471309 -182 4 C-179 3 -179 3 -175 3 C-174.67 3.66 -174.34 4.32 -174 5 C-172.22280643 5.6232536 -172.22280643 5.6232536 -170.0546875 6 C-169.22324219 6.165 -168.39179688 6.33 -167.53515625 6.5 C-166.21837891 6.7475 -166.21837891 6.7475 -164.875 7 C-164.05128906 7.165 -163.22757813 7.33 -162.37890625 7.5 C-159.5918509 8.04134004 -156.79962044 8.52793125 -154 9 C-152.95408691 9.18312744 -151.90817383 9.36625488 -150.83056641 9.55493164 C-138.8012845 11.42729501 -126.77488538 11.43990324 -114.625 11.4375 C-112.89890503 11.43910126 -112.89890503 11.43910126 -111.13793945 11.44073486 C-73.697116 11.39116909 -36.79801836 6.62412356 0 0 Z " fill="#000000" transform="translate(203,142)"/>
<path d="M0 0 C4.74238959 0.45894093 9.48095305 0.93681641 14.21484375 1.4765625 C15.34913818 1.60538818 15.34913818 1.60538818 16.50634766 1.73681641 C17.99193013 1.90635461 19.47730142 2.07775897 20.96240234 2.25146484 C23.30676067 2.51847724 25.65233108 2.76383582 28 3 C28.85730713 3.08757568 29.71461426 3.17515137 30.59790039 3.26538086 C42.30672893 4.31383058 54.06564591 4.35111702 65.8125 4.5625 C68.06576178 4.60577897 70.3190171 4.64939594 72.57226562 4.69335938 C78.0481086 4.79947149 83.52401678 4.90140523 89 5 C89.5625 6.9375 89.5625 6.9375 90 9 C88.39467565 10.60532435 86.6726511 10.15149361 84.44970703 10.17700195 C82.98759293 10.19599045 82.98759293 10.19599045 81.49594116 10.21536255 C80.4273587 10.22292572 79.35877625 10.23048889 78.2578125 10.23828125 C76.60309433 10.2527681 76.60309433 10.2527681 74.91494751 10.26754761 C71.31826487 10.29254274 67.72176035 10.3049658 64.125 10.3125 C62.9131604 10.31545074 61.7013208 10.31840149 60.45275879 10.32144165 C39.86461398 10.33292254 19.57401566 10.1284744 0 3 C0 2.01 0 1.02 0 0 Z " fill="#E7E7E7" transform="translate(28,144)"/>
</svg>
